<svg width="54" height="44" viewBox="0 0 54 44" fill="none" xmlns="http://www.w3.org/2000/svg">
<path d="M26.8102 2.72544C27.6795 3.41467 28.2012 4.1039 28.8967 4.96544C34.2869 12.03 34.2869 24.7808 29.4183 32.0177C28.7228 33.0515 27.8534 33.9131 26.8102 34.9469C30.4616 37.5315 34.2869 37.1869 37.4166 34.0854C44.7195 26.6762 44.7195 6.68851 34.6346 1.86391C31.8526 0.313139 29.2444 1.00237 26.8102 2.72544Z" stroke="#3CB816" stroke-width="1.5" stroke-miterlimit="10" stroke-linecap="round" stroke-linejoin="round"/>
<path d="M31.6787 36.4976H21.42C19.5073 36.3252 18.2902 35.636 16.7253 34.4299C9.24862 27.5376 9.24862 13.0638 14.9866 5.13763C16.7253 2.89763 18.638 1.51918 21.42 1.17456H31.5048C28.5489 1.34687 26.8102 2.55302 24.8975 4.79301C18.9857 12.2022 18.9857 26.1591 25.4192 33.5683C27.3318 35.4637 28.8967 36.4976 31.6787 36.4976Z" stroke="#3CB816" stroke-width="1.5" stroke-miterlimit="10" stroke-linecap="round" stroke-linejoin="round"/>
<path fill-rule="evenodd" clip-rule="evenodd" d="M31.3309 13.4087C34.2869 13.4087 36.7211 15.821 36.7211 18.7502C36.7211 21.6794 34.2869 24.0917 31.3309 24.0917C28.375 24.0917 25.9408 21.6794 25.9408 18.7502C25.9408 15.821 28.375 13.4087 31.3309 13.4087Z" fill="#3CB816" fill-opacity="0.75"/>
<path fill-rule="evenodd" clip-rule="evenodd" d="M26.2885 13.4084C29.2444 13.4084 31.6787 15.8207 31.6787 18.75C31.6787 21.6792 29.2444 24.0915 26.2885 24.0915C23.3326 24.0915 20.8983 21.6792 20.8983 18.75C20.8983 15.8207 23.3326 13.4084 26.2885 13.4084Z" fill="#3CB816" fill-opacity="0.5"/>
<path fill-rule="evenodd" clip-rule="evenodd" d="M11.3902 13.4084C14.3461 13.4084 16.7804 15.8207 16.7804 18.75C16.7804 21.6792 14.3461 24.0915 11.3902 24.0915C8.43434 24.0915 6.00006 21.6792 6.00006 18.75C6.00006 15.8207 8.43434 13.4084 11.3902 13.4084Z" fill="#3CB816" fill-opacity="0.25"/>
<path fill-rule="evenodd" clip-rule="evenodd" d="M39.6092 43.8639C43.9561 43.8639 47.6075 40.2455 47.6075 35.9378C47.6075 31.4578 43.9561 27.8394 39.6092 27.8394C35.0884 27.8394 31.437 31.4578 31.437 35.9378C31.6109 40.2455 35.2623 43.8639 39.6092 43.8639Z" fill="#3CB816"/>
<path fill-rule="evenodd" clip-rule="evenodd" d="M39.6092 33.0088L42.0434 35.5934C42.3785 36.0457 42.3785 36.0457 42.0434 36.455L39.6092 39.0396C39.4353 39.2119 39.0875 39.2119 38.9137 39.2119C38.7398 39.0396 38.392 38.8673 38.392 38.5226V33.5257C38.392 33.1811 38.5659 33.0088 38.9137 32.8365C39.0875 32.6642 39.4353 32.8365 39.6092 33.0088Z" fill="#1A1C1F"/>
</svg>
