<svg width="54" height="44" viewBox="0 0 54 44" fill="none" xmlns="http://www.w3.org/2000/svg">
<path d="M22.7735 29.0813C22.7735 29.8125 22.0442 30.5437 21.3149 30.5437H14.0221V36.3938C14.0221 38.8313 15.9668 40.7813 18.3978 40.7813H23.9889H39.547H44.1657C46.5967 40.7813 48.5414 38.8313 48.5414 36.3938V15.9188C48.5414 13.4813 46.5967 11.5312 44.1657 11.5312H23.6901" stroke="#3CB816" stroke-opacity="0.5" stroke-width="1.5" stroke-miterlimit="10" stroke-linecap="round" stroke-linejoin="round"/>
<path d="M21.3149 30.3H7.45856C6.72928 30.3 6 29.5687 6 28.8375V4.4625C6 3.73125 6.72928 3 7.45856 3H21.558C22.2873 3 23.0166 3.73125 23.0166 4.4625V29.0812C22.7735 29.8125 22.2873 30.3 21.3149 30.3Z" stroke="#3CB816" stroke-width="1.5" stroke-miterlimit="10" stroke-linecap="round" stroke-linejoin="round"/>
<path d="M34.442 28.5938H44.4089" stroke="#3CB816" stroke-opacity="0.5" stroke-width="2" stroke-miterlimit="10" stroke-linecap="round" stroke-linejoin="round"/>
<path d="M9.40338 21.5251H19.3702" stroke="#3CB816" stroke-width="2" stroke-miterlimit="10" stroke-linecap="round" stroke-linejoin="round"/>
<path d="M9.40338 24.9375H19.3702" stroke="#3CB816" stroke-width="2" stroke-miterlimit="10" stroke-linecap="round" stroke-linejoin="round"/>
<path d="M30.0663 32.0063H44.4089" stroke="#3CB816" stroke-opacity="0.5" stroke-width="2" stroke-miterlimit="10" stroke-linecap="round" stroke-linejoin="round"/>
<path d="M30.0663 35.4187H44.4089" stroke="#3CB816" stroke-opacity="0.5" stroke-width="2" stroke-miterlimit="10" stroke-linecap="round" stroke-linejoin="round"/>
<path fill-rule="evenodd" clip-rule="evenodd" d="M8.67404 5.4375H19.8564C20.3426 5.4375 20.5856 5.68125 20.5856 6.16875V13.725C20.5856 14.0593 20.3957 14.4563 20.0995 14.4563H8.67404C8.43095 14.4563 7.94476 14.2125 7.94476 13.725V6.16875C7.94476 5.925 8.43095 5.4375 8.67404 5.4375Z" fill="#3CB816"/>
<path fill-rule="evenodd" clip-rule="evenodd" d="M23.5028 16.6501H44.652C44.8951 16.6501 45.3813 16.8939 45.3813 17.3814V23.9626C45.3813 24.4501 45.1382 24.6939 44.652 24.6939H23.5028C23.0167 24.6939 22.7736 24.2064 22.7736 23.9626V17.3814C22.7736 17.1376 23.0167 16.6501 23.5028 16.6501Z" fill="#3CB816" fill-opacity="0.5"/>
</svg>
