<svg width="55" height="44" viewBox="0 0 55 44" fill="none" xmlns="http://www.w3.org/2000/svg">
<path d="M6.59578 3H47.8979C51.0955 3 53.4937 5.7027 53.4937 8.67568V35.4324C53.4937 38.6757 51.0955 41.1081 47.8979 41.1081H6.59578C3.39819 41.1081 1 38.6757 1 35.4324V8.67568C1 5.7027 3.66466 3 6.59578 3Z" stroke="#3CB816" stroke-width="1.5" stroke-miterlimit="10" stroke-linecap="round" stroke-linejoin="round"/>
<path d="M7.9281 12.73H21.7843" stroke="#3CB816" stroke-width="2" stroke-miterlimit="10" stroke-linecap="round" stroke-linejoin="round"/>
<path d="M7.9281 23.374H21.7843" stroke="#3CB816" stroke-width="2" stroke-miterlimit="10" stroke-linecap="round" stroke-linejoin="round"/>
<path d="M7.9281 28.1353H21.7843" stroke="#3CB816" stroke-width="2" stroke-miterlimit="10" stroke-linecap="round" stroke-linejoin="round"/>
<path d="M7.9281 33.2634H21.7843" stroke="#3CB816" stroke-width="2" stroke-miterlimit="10" stroke-linecap="round" stroke-linejoin="round"/>
<path d="M31.6435 9.75684H45.7662C46.5656 9.75684 47.0985 10.5676 47.0985 11.1082V32.7298C47.0985 33.5406 46.2991 34.0812 45.7662 34.0812H31.6435C30.8441 34.0812 30.3112 33.2703 30.3112 32.7298V11.1082C30.3112 10.2974 30.8441 9.75684 31.6435 9.75684Z" stroke="#3CB816" stroke-width="1.5" stroke-miterlimit="10" stroke-linecap="round" stroke-linejoin="round"/>
<path fill-rule="evenodd" clip-rule="evenodd" d="M42.3021 34.3514H31.6435C30.8441 34.3514 30.3112 33.5406 30.3112 33.0001V20.5676C30.5776 20.5676 30.5776 20.5676 30.5776 20.5676C37.2393 20.5676 42.3021 25.973 42.3021 32.4595C42.5686 33.0001 42.3021 33.8109 42.3021 34.3514Z" fill="#3CB816"/>
<path fill-rule="evenodd" clip-rule="evenodd" d="M40.7034 9.75684H46.5657C47.0986 9.75684 47.3651 10.0271 47.3651 10.5676V17.8649C46.5657 18.1352 45.7663 18.6758 44.7004 18.6758C41.7693 18.6758 39.3711 16.2433 39.3711 13.2703C39.6376 11.6487 40.1705 10.5676 40.7034 9.75684Z" fill="#3CB816"/>
</svg>
