<svg width="54" height="44" viewBox="0 0 54 44" fill="none" xmlns="http://www.w3.org/2000/svg">
<path d="M32.644 14.2734H49.8738C51.8509 14.2734 53.2632 15.7006 53.2632 17.6985V33.3969C53.2632 35.3949 51.8509 36.822 49.8738 36.822H39.4229L35.4663 40.6203C34.8307 41.2304 33.7738 40.78 33.7738 39.8989V36.822H32.644C30.6668 36.822 29.2545 35.3949 29.2545 33.3969V17.6985C29.2545 15.986 30.6668 14.2734 32.644 14.2734Z" fill="#3CB816" fill-opacity="0.5"/>
<path fill-rule="evenodd" clip-rule="evenodd" d="M22.9091 30.7019H17.9849C17.5084 30.7019 17.0319 31.1924 17.0319 31.683V36.2613C17.0319 36.7519 17.5084 37.2424 17.9849 37.2424H21.003L22.1149 38.387C22.3298 38.6082 22.6203 38.5096 22.5914 38.2235V37.2424H22.9091C23.3856 37.2424 23.8621 36.7519 23.8621 36.2613V31.683C23.8621 31.0289 23.3856 30.7019 22.9091 30.7019Z" fill="#3CB816"/>
<path d="M1.29138 22.836V3.99797C1.29138 2.85627 2.13875 2 3.26857 2H30.9492C32.079 2 32.9264 2.85627 32.9264 3.99797V22.5506C32.9264 23.4069 32.079 24.5486 30.9492 24.5486H2.98611C2.13875 24.5486 1.29138 23.6923 1.29138 22.836Z" stroke="#3CB816" stroke-width="1.5" stroke-miterlimit="10" stroke-linecap="round" stroke-linejoin="round"/>
<path fill-rule="evenodd" clip-rule="evenodd" d="M32.644 8.85V22.8358C32.644 23.6921 31.7966 24.8338 30.6668 24.8338H15.1318C15.1318 24.5484 15.1318 24.5484 15.1318 24.2629C15.1318 15.7002 21.9107 8.85 30.3844 8.85C31.2317 8.56458 32.0791 8.85 32.644 8.85Z" fill="#3CB816"/>
<path fill-rule="evenodd" clip-rule="evenodd" d="M1.29138 10.8484V3.42734C1.29138 2.85649 1.85629 2.28564 2.4212 2.28564H11.4598C12.0247 3.14192 12.3071 4.56904 12.3071 5.71074C12.3071 9.42126 9.20013 12.5609 5.52821 12.5609C3.83348 12.5609 2.4212 11.9901 1.29138 10.8484Z" fill="#3CB816"/>
<path d="M37.1632 22.5503H46.7667M35.7509 28.5442H45.3544H35.7509Z" stroke="#1A1C1F" stroke-width="2" stroke-miterlimit="10" stroke-linecap="round" stroke-linejoin="round"/>
<path d="M45.3544 20.5527L43.0948 30.2572M39.4229 20.5527L37.1632 30.2572L39.4229 20.5527Z" stroke="#1A1C1F" stroke-width="2" stroke-miterlimit="10" stroke-linecap="round" stroke-linejoin="round"/>
</svg>
